<?xml version="1.0" standalone="no"?>
<!DOCTYPE svg PUBLIC "-//W3C//DTD SVG 20010904//EN"
 "http://www.w3.org/TR/2001/REC-SVG-20010904/DTD/svg10.dtd">
<svg version="1.0" xmlns="http://www.w3.org/2000/svg"
 width="360.000000pt" height="360.000000pt" viewBox="0 0 360.000000 360.000000"
 preserveAspectRatio="xMidYMid meet">

<g transform="translate(0.000000,360.000000) scale(0.100000,-0.100000)"
fill="#000000" stroke="none">
<path d="M330 2970 c-47 -47 -17 -110 168 -357 46 -62 86 -113 89 -113 3 0 62
53 130 118 69 64 153 142 187 173 l61 56 -100 33 c-169 54 -402 110 -460 110
-42 0 -60 -5 -75 -20z"/>
<path d="M1872 2279 c-61 -60 -112 -115 -112 -122 0 -19 21 -37 42 -37 22 0
250 218 242 231 -3 5 -17 15 -32 23 -27 14 -29 12 -140 -95z"/>
<path d="M1133 2103 c-56 -60 -73 -84 -71 -103 5 -47 36 -36 114 41 45 44 74
82 74 94 0 22 -17 45 -34 45 -6 0 -43 -35 -83 -77z"/>
<path d="M2327 2002 c-53 -53 -99 -100 -103 -104 -10 -11 16 -48 34 -48 9 0
64 44 121 98 l103 97 -29 27 -28 27 -98 -97z"/>
<path d="M1751 1581 c-67 -66 -121 -124 -121 -129 0 -5 12 -17 26 -27 32 -20
28 -23 166 117 93 94 106 111 99 131 -18 48 -44 33 -170 -92z"/>
</g>
</svg>
