<?xml version="1.0" standalone="no"?>
<!DOCTYPE svg PUBLIC "-//W3C//DTD SVG 20010904//EN"
 "http://www.w3.org/TR/2001/REC-SVG-20010904/DTD/svg10.dtd">
<svg version="1.0" xmlns="http://www.w3.org/2000/svg"
 width="612.000000pt" height="612.000000pt" viewBox="0 0 612.000000 612.000000"
 preserveAspectRatio="xMidYMid meet">

<g transform="translate(0.000000,612.000000) scale(0.100000,-0.100000)"
fill="#000000" stroke="none">
<path d="M3254 4504 c-111 -34 -196 -135 -225 -267 -21 -95 -15 -278 15 -467
47 -299 65 -485 81 -806 l6 -121 -47 -7 c-26 -3 -64 -6 -84 -6 l-37 0 -7 118
c-38 619 -206 1100 -450 1286 -131 100 -256 125 -366 74 -146 -66 -212 -178
-211 -358 1 -119 23 -210 90 -365 174 -399 269 -778 296 -1191 l7 -100 -98
-13 c-551 -72 -807 -235 -647 -412 130 -143 540 -230 1235 -261 507 -22 1136
29 1444 117 210 60 334 150 334 240 0 38 -35 100 -73 129 -88 67 -331 147
-540 177 l-84 13 -43 93 c-23 51 -66 127 -95 169 l-53 75 19 62 c27 89 66 288
86 435 20 159 23 536 4 672 -28 208 -90 426 -153 536 -86 154 -249 225 -404
178z m186 -149 c65 -34 122 -133 170 -297 113 -388 98 -907 -40 -1383 -11 -38
-20 -77 -20 -87 0 -9 19 -39 43 -66 131 -154 237 -447 237 -655 l0 -76 -42 -6
c-215 -30 -879 -45 -1163 -26 -93 6 -173 15 -176 19 -4 4 -2 34 3 67 16 87 15
508 0 655 -44 409 -129 739 -284 1104 -33 78 -69 174 -79 215 -43 167 -11 293
86 348 79 45 173 19 277 -76 200 -183 336 -642 364 -1229 9 -179 14 -189 101
-182 136 11 308 5 381 -14 67 -17 74 -17 97 -2 32 21 42 62 24 95 -11 19 -31
31 -80 45 l-66 19 -7 175 c-11 273 -35 509 -91 872 -11 69 -15 146 -13 226 3
105 7 127 30 175 47 95 154 131 248 84z"/>
<path d="M3416 2269 c-60 -71 -15 -229 65 -229 42 0 58 9 76 43 63 123 -59
284 -141 186z"/>
<path d="M2798 2243 c-44 -51 -51 -126 -17 -183 36 -58 74 -74 118 -50 19 10
51 78 51 108 0 37 -23 96 -45 118 -29 29 -85 32 -107 7z"/>
<path d="M3142 1990 c-76 -47 -55 -125 38 -137 49 -7 112 18 130 52 41 77 -80
138 -168 85z"/>
</g>
</svg>
